<svg xmlns="http://www.w3.org/2000/svg" viewBox="0 0 2498.36 730" width="2498.36" height="730"><defs><style>.cls-1{fill:#fff;}</style></defs><title>Asset 2</title><g id="Layer_2" data-name="Layer 2"><g id="Layer_1-2" data-name="Layer 1"><path class="cls-1" d="M365,730C163.74,730,0,566.26,0,365S163.74,0,365,0,730,163.74,730,365,566.26,730,365,730ZM365,7.87C168.08,7.87,7.87,168.08,7.87,365S168.08,722.13,365,722.13,722.13,561.92,722.13,365,561.92,7.87,365,7.87Z"/><path class="cls-1" d="M375.45,374c-5.79,2.35-12.62,3.55-20.53,7.37l-2,.77-2.32,1c-8.64,3.44-15.17,7.52-23.26,11.79-16.63,10.11-34.84,20.45-45,37.76-8.54,15.06-5.62,34.17,2.92,48.78a36.64,36.64,0,0,0,4.89,6.23,44.59,44.59,0,0,0,10.62,9c21.8,9.67,47,5.62,67.66-4.72,15.06-8.09,29.22-17.76,40.24-31,11.69-12.36,20.42-29.75,20.7-41.37a48.47,48.47,0,0,1,.42-4.94c.45-13,.45-25.85.45-38.66h0c0-4.5,0-8.77,0-13A285.85,285.85,0,0,0,375.45,374Z"/><path class="cls-1" d="M365,74.75C204.7,74.75,74.75,204.7,74.75,365S204.7,655.25,365,655.25,655.25,525.3,655.25,365,525.3,74.75,365,74.75ZM541.79,509.54c-17.08,14.83-40.46,23.37-62.71,17.53-25.4-4.72-40-29.44-47.2-52.15a6.82,6.82,0,0,0-5.62,2.69c-20.23,21.13-43.61,41.58-73.05,47.66-27.87,5.39-57.54,5.62-84.52-4.5-21.36-7.64-39.11-26.3-43.39-48.78a73,73,0,0,1,3.37-38.66c6.52-15.06,17.76-27.2,30.12-37.76,28.32-20.23,61.36-32.82,94.85-41.58,25.18-6.29,50.8-10.12,76.43-13.26.45-14.61,0-29.22.22-44.06,0-13-2.92-26.52-11.46-36.86-14.16-18.88-38.21-28.77-61.36-27.64-19.11-.68-38.66,3.82-54.62,14.38-7.19,4.72-14.83,13.26-9.89,22.25,3.59,7.41,10.11,13,13.26,20.68,3.37,6.3,2.92,13.49,2,20.24a21.63,21.63,0,0,0-1.57,4c-8.76,20.46-38.88,23.83-54.4,9.22a36.67,36.67,0,0,1-9.67-13,60.63,60.63,0,0,1-2.7-24.5c5.62-22,22-38.88,40-51.48,24.5-14.83,53.27-22.25,82-22,31.92-1.35,66.75,2,91.93,23.38,12.14,9.44,20.23,22.93,25.17,37.31a118.78,118.78,0,0,1,1.57,21.8V458.52c.45,14.38,3.14,31.92,17.08,39.56,11.91,6.07,25.62.45,36.19-6.07a4.13,4.13,0,0,0,1.57-.45h0c3.15,5.17,6.74,10.12,9.23,15.51A29.09,29.09,0,0,1,541.79,509.54Z"/><path class="cls-1" d="M1178.36,598.89l-27.24-81.74h-165l-28.75,83.26H862l169.54-466.23h71.15l171.05,466.23h-95.36v-1.52Zm-109-328.48-59,169.53h116.55l-57.52-169.53Zm351.19,328.48c-69.62,0-99.9-48.43-99.9-96.87V132.67h84.76V496c0,19.65,9.08,30.27,30.28,30.27H1469v72.64h-48.45Zm183.17-143.81c0,43.91,27.26,75.69,74.18,75.69,37.84,0,56-10.58,77.19-31.78l51.47,50c-34.81,34.79-68.12,53-130.17,53-80.24,0-157.44-36.34-157.44-175.61,0-112,60.55-174.08,148.34-174.08,95.36,0,148.34,69.64,148.34,163.48v37.84H1603.72v1.51Zm122.62-95.35c-9.09-19.69-28.77-34.82-57.52-34.82s-48.45,15.14-57.54,34.82c-4.53,12.09-7.56,21.19-7.56,36.32h130.19c0-13.61-3-22.7-7.57-36.32Zm357.25,239.16-62.06-101.41-62.07,101.41H1856.52l118.07-174.08L1861.06,258.29h103l57.52,96.88L2079,258.29H2182L2068.45,424.81l118.06,174.08Zm333,0V570.14c-22.7,22.7-43.9,33.3-83.25,33.3s-66.61-9.07-87.81-30.28c-18.15-19.68-28.77-46.91-28.77-77.19,0-54.51,37.84-98.4,116.58-98.4h80.21V380.92c0-37.84-18.15-53-63.56-53-33.29,0-48.43,7.57-65.11,28.76l-54.48-53c33.32-36.32,66.61-46.91,122.6-46.91,95.38,0,145.35,40.87,145.35,121.1V601.94h-81.75v-3Zm-1.51-143.81H2347c-30.27,0-48.45,15.14-48.45,39.37s15.13,39.37,48.45,39.37c24.22,0,39.35-1.52,53-16.66,9.08-9.09,12.09-22.71,12.09-43.89V455.08h3Z"/></g></g></svg>