<svg xmlns="http://www.w3.org/2000/svg" xmlns:xlink="http://www.w3.org/1999/xlink" viewBox="0 0 2498.36 730" width="2498.36" height="730"><defs><style>.cls-1{fill:url(#linear-gradient);}.cls-2{fill:#223baa;}.cls-3{fill:#172760;}.cls-4{fill:#fdfefd;}.cls-5{fill:#363636;}</style><linearGradient id="linear-gradient" x1="362.37" y1="947.44" x2="362.37" y2="763.02" gradientTransform="matrix(3.15, 0, 0, -3.15, -775.58, 3056.89)" gradientUnits="userSpaceOnUse"><stop offset="0" stop-color="#4779f1"/><stop offset="1" stop-color="#223baa"/></linearGradient></defs><title>Asset 1</title><g id="Layer_2" data-name="Layer 2"><g id="Layer_1-2" data-name="Layer 1"><circle class="cls-1" cx="365" cy="365" r="290.25"/><path class="cls-2" d="M365,730C163.74,730,0,566.26,0,365S163.74,0,365,0,730,163.74,730,365,566.26,730,365,730ZM365,7.87C168.08,7.87,7.87,168.08,7.87,365S168.08,722.13,365,722.13,722.13,561.92,722.13,365,561.92,7.87,365,7.87Z"/><path class="cls-3" d="M535.49,491.56a4.13,4.13,0,0,1-1.57.45c-10.56,6.52-24.28,12.14-36.19,6.07-13.94-7.64-16.63-25.17-17.08-39.56V294.43a118.78,118.78,0,0,0-1.57-21.8c-4.94-14.38-13-27.87-25.17-37.31-25.18-21.35-60-24.72-91.93-23.38-28.77-.23-57.54,7.19-82,22-18,12.59-34.39,29.45-40,51.48a60.63,60.63,0,0,0,2.7,24.5,36.67,36.67,0,0,0,9.67,13c15.51,14.61,45.63,11.24,54.4-9.22a21.63,21.63,0,0,1,1.57-4c.9-6.75,1.35-13.94-2-20.24-3.15-7.64-9.67-13.26-13.26-20.68-4.94-9,2.7-17.53,9.89-22.25,16-10.56,35.52-15.06,54.62-14.38,23.15-1.13,47.2,8.77,61.36,27.64,8.54,10.34,11.46,23.83,11.46,36.86-.22,14.83.23,29.44-.22,44.06-25.63,3.15-51.25,7-76.43,13.26-33.49,8.77-66.54,21.35-94.85,41.58-12.36,10.56-23.6,22.7-30.12,37.76A73,73,0,0,0,225.31,472c4.27,22.48,22,41.14,43.39,48.78,27,10.11,56.64,9.89,84.52,4.5,29.44-6.07,52.82-26.53,73.05-47.66a6.82,6.82,0,0,1,5.62-2.69c7.2,22.7,21.81,47.42,47.2,52.15,22.25,5.84,45.63-2.69,62.71-17.53a29.1,29.1,0,0,0,2.93-2.48c-2.49-5.39-6.08-10.34-9.23-15.51ZM430.3,376c0,12.81,0,25.63-.45,38.66a48.48,48.48,0,0,0-.42,4.94c-.28,11.61-9,29-20.7,41.37-11,13.26-25.17,22.93-40.24,31-20.68,10.33-45.85,14.38-67.66,4.72a44.59,44.59,0,0,1-10.62-9,36.64,36.64,0,0,1-4.89-6.23c-8.54-14.61-11.46-33.72-2.92-48.78,10.11-17.31,28.32-27.64,45-37.76,8.09-4.27,14.62-8.35,23.26-11.79l2.32-1,2-.77c7.91-3.82,14.74-5,20.53-7.37a285.85,285.85,0,0,1,54.84-11c0,4.27,0,8.54,0,13Z"/><path class="cls-4" d="M535.49,479a4.13,4.13,0,0,1-1.57.45c-10.56,6.52-24.28,12.14-36.19,6.07-13.94-7.64-16.63-25.17-17.08-39.56V281.84a118.78,118.78,0,0,0-1.57-21.8c-4.94-14.38-13-27.87-25.17-37.31-25.18-21.35-60-24.72-91.93-23.38-28.77-.23-57.54,7.19-82,22-18,12.59-34.39,29.45-40,51.48a60.63,60.63,0,0,0,2.7,24.5,36.67,36.67,0,0,0,9.67,13c15.51,14.61,45.63,11.24,54.4-9.22a21.63,21.63,0,0,1,1.57-4c.9-6.75,1.35-13.94-2-20.24-3.15-7.64-9.67-13.26-13.26-20.68-4.94-9,2.7-17.53,9.89-22.25,16-10.56,35.52-15.06,54.62-14.38,23.15-1.13,47.2,8.77,61.36,27.64,8.54,10.34,11.46,23.83,11.46,36.86-.22,14.83.23,29.44-.22,44.06-25.63,3.15-51.25,7-76.43,13.26-33.49,8.77-66.54,21.35-94.85,41.58-12.36,10.56-23.6,22.7-30.12,37.76a73,73,0,0,0-3.37,38.66c4.27,22.48,22,41.14,43.39,48.78,27,10.11,56.64,9.89,84.52,4.5,29.44-6.07,52.82-26.53,73.05-47.66a6.82,6.82,0,0,1,5.62-2.69c7.2,22.7,21.81,47.42,47.2,52.15,22.25,5.84,45.63-2.69,62.71-17.53a29.1,29.1,0,0,0,2.93-2.48c-2.49-5.39-6.08-10.34-9.23-15.51ZM430.3,363.44c0,12.81,0,25.63-.45,38.66a48.48,48.48,0,0,0-.42,4.94c-.28,11.61-9,29-20.7,41.37-11,13.26-25.17,22.93-40.24,31-20.68,10.33-45.85,14.38-67.66,4.72a44.59,44.59,0,0,1-10.62-9,36.64,36.64,0,0,1-4.89-6.23c-8.54-14.61-11.46-33.72-2.92-48.78,10.11-17.31,28.32-27.64,45-37.76C335.44,378,342,374,350.61,370.53l2.32-1,2-.77c7.91-3.82,14.74-5,20.53-7.37a285.85,285.85,0,0,1,54.84-11c0,4.27,0,8.54,0,13Z"/><path class="cls-5" d="M1178.36,598.89l-27.24-81.74h-165l-28.75,83.26H862l169.54-466.23h71.15l171.05,466.23h-95.36v-1.52Zm-109-328.48-59,169.53h116.55l-57.52-169.53Zm351.19,328.48c-69.62,0-99.9-48.43-99.9-96.87V132.67h84.76V496c0,19.65,9.08,30.27,30.28,30.27H1469v72.64h-48.45Zm183.17-143.81c0,43.91,27.26,75.69,74.18,75.69,37.84,0,56-10.58,77.19-31.78l51.47,50c-34.81,34.79-68.12,53-130.17,53-80.24,0-157.44-36.34-157.44-175.61,0-112,60.55-174.08,148.34-174.08,95.36,0,148.34,69.64,148.34,163.48v37.84H1603.72v1.51Zm122.62-95.35c-9.09-19.69-28.77-34.82-57.52-34.82s-48.45,15.14-57.54,34.82c-4.53,12.09-7.56,21.19-7.56,36.32h130.19c0-13.61-3-22.7-7.57-36.32Zm357.25,239.16-62.06-101.41-62.07,101.41H1856.52l118.07-174.08L1861.06,258.29h103l57.52,96.88L2079,258.29H2182L2068.45,424.81l118.06,174.08Zm333,0V570.14c-22.7,22.7-43.9,33.3-83.25,33.3s-66.61-9.07-87.81-30.28c-18.15-19.68-28.77-46.91-28.77-77.19,0-54.51,37.84-98.4,116.58-98.4h80.21V380.92c0-37.84-18.15-53-63.56-53-33.29,0-48.43,7.57-65.11,28.76l-54.48-53c33.32-36.32,66.61-46.91,122.6-46.91,95.38,0,145.35,40.87,145.35,121.1V601.94h-81.75v-3Zm-1.51-143.81H2347c-30.27,0-48.45,15.14-48.45,39.37s15.13,39.37,48.45,39.37c24.22,0,39.35-1.52,53-16.66,9.08-9.09,12.09-22.71,12.09-43.89V455.08h3Z"/></g></g></svg>